#tb 0: 1/100
0,          0,          0,        1,      508, 0xa1b80fc0
0,         10,         10,        1,      213, 0x4f554bd7, S=1,     1024, 0xb6327c81
0,         20,         20,        1,      131, 0x283b2988, S=1,     1024, 0xae3a7c81
0,         30,         30,        1,      384, 0xc4fea72a, S=1,     1024, 0xb6327c81
0,         40,         40,        1,      381, 0x050ba2b8, S=1,     1024, 0x9e4a7c81
0,         50,         50,        1,      430, 0x00cfb2ae, S=1,     1024, 0x9e4a7c81
0,         60,         60,        1,      518, 0xc8e5d827, S=1,     1024, 0x9e4a7c81
0,         70,         70,        1,      535, 0x326ce62a, S=1,     1024, 0x9e4a7c81
0,         80,         80,        1,      438, 0x34d6b7c0, S=1,     1024, 0xb6327c81
0,         90,         90,        1,      923, 0x9fb1a37c, S=1,     1024, 0xb6327c81
0,        100,        100,        1,      694, 0xf20449a5, S=1,     1024, 0xb6327c81
0,        110,        110,        1,     1194, 0x67cd2ab5, S=1,     1024, 0xb6327c81
0,        120,        120,        1,     1291, 0x1d23539d, S=1,     1024, 0xb6327c81
0,        130,        130,        1,     1245, 0x065f32e6, S=1,     1024, 0xb6327c81
0,        140,        140,        1,     1330, 0x83ec51a4, S=1,     1024, 0xb6327c81
0,        150,        150,        1,     1276, 0x2acf38dc, S=1,     1024, 0xb6327c81
0,        160,        160,        1,     1475, 0x4cd197ef, S=1,     1024, 0xb6327c81
0,        170,        170,        1,     1784, 0xd1e84ae6, S=1,     1024, 0xde0a7c81
0,        180,        180,        1,     1675, 0x092dfa86, S=1,     1024, 0xde0a7c81
0,        190,        190,        1,     1509, 0x639aaa00, S=1,     1024, 0xde0a7c81
0,        200,        200,        1,     1705, 0xfd3719d5, S=1,     1024, 0xde0a7c81
0,        210,        210,        1,     1745, 0x8a761db4, S=1,     1024, 0xde0a7c81
0,        220,        220,        1,     1642, 0x18830245, S=1,     1024, 0xde0a7c81
0,        230,        230,        1,     1718, 0x3c8d1ebe, S=1,     1024, 0xde0a7c81
0,        240,        240,        1,     1900, 0x2ea879d1, S=1,     1024, 0xde0a7c81
0,        250,        250,        1,     1807, 0x02b35230, S=1,     1024, 0xde0a7c81
0,        260,        260,        1,     1915, 0x22d48344, S=1,     1024, 0xde0a7c81
0,        270,        270,        1,     2100, 0x55fcd063, S=1,     1024, 0xde0a7c81
0,        280,        280,        1,     2700, 0x7cc5f08b, S=1,     1024, 0xde0a7c81
0,        290,        290,        1,     2673, 0xb997a80d, S=1,     1024, 0xde0a7c81
0,        300,        300,        1,     2895, 0xab69484d, S=1,     1024, 0xde0a7c81
0,        310,        310,        1,     3257, 0xf753cf24, S=1,     1024, 0xde0a7c81
0,        320,        320,        1,     3179, 0x34f2c13b, S=1,     1024, 0xde0a7c81
0,        330,        330,        1,     3296, 0x7c06e72f, S=1,     1024, 0xde0a7c81
0,        340,        340,        1,     3600, 0x4ca67634, S=1,     1024, 0xde0a7c81
0,        350,        350,        1,     3699, 0xabe89fe3, S=1,     1024, 0xde0a7c81
0,        360,        360,        1,     3814, 0x1869d3f4, S=1,     1024, 0xde0a7c81
0,        370,        370,        1,     3627, 0x19bd7da7, S=1,     1024, 0xde0a7c81
0,        380,        380,        1,     2950, 0x048a6055, S=1,     1024, 0xde0a7c81
0,        390,        390,        1,     3086, 0x64ec8fc2, S=1,     1024, 0xde0a7c81
0,        400,        400,        1,     3094, 0x1a388553, S=1,     1024, 0xde0a7c81
0,        410,        410,        1,     3456, 0x01432c82, S=1,     1024, 0xde0a7c81
0,        420,        420,        1,     4108, 0xf9505c66, S=1,     1024, 0xde0a7c81
0,        430,        430,        1,     4217, 0x7f985ba4, S=1,     1024, 0xde0a7c81
0,        440,        440,        1,     3613, 0xd0684d83, S=1,     1024, 0xde0a7c81
0,        450,        450,        1,     3910, 0x0070e692, S=1,     1024, 0xde0a7c81
0,        460,        460,        1,     4461, 0x5cc9e33d, S=1,     1024, 0xde0a7c81
0,        470,        470,        1,     4593, 0x33a32dd1, S=1,     1024, 0xde0a7c81
0,        480,        480,        1,     4822, 0x59549883, S=1,     1024, 0xde0a7c81
0,        490,        490,        1,     5398, 0xb7bac31e, S=1,     1024, 0xde0a7c81
0,        500,        500,        1,     5266, 0x21c695aa, S=1,     1024, 0xde0a7c81
0,        510,        510,        1,     5416, 0xf305e3ed, S=1,     1024, 0xde0a7c81
0,        520,        520,        1,     5519, 0x857d071f, S=1,     1024, 0xde0a7c81
0,        530,        530,        1,     5701, 0x8f885c9c, S=1,     1024, 0xde0a7c81
0,        540,        540,        1,     6160, 0x48523e83, S=1,     1024, 0xde0a7c81
0,        550,        550,        1,     6233, 0x8fd2511e, S=1,     1024, 0xde0a7c81
0,        560,        560,        1,     5911, 0x92d4c516, S=1,     1024, 0xde0a7c81
0,        570,        570,        1,     5997, 0xbd7cfa15, S=1,     1024, 0xde0a7c81
0,        580,        580,        1,     5946, 0x8f5fedff, S=1,     1024, 0xde0a7c81
0,        590,        590,        1,     6468, 0x45c0cb8c, S=1,     1024, 0xde0a7c81
0,        600,        600,        1,     6737, 0x4e1e39ac, S=1,     1024, 0xde0a7c81
0,        610,        610,        1,     6275, 0x1d5e8f4c, S=1,     1024, 0xde0a7c81
0,        620,        620,        1,     6641, 0x844b3aad, S=1,     1024, 0xde0a7c81
0,        630,        630,        1,     6378, 0x52568640, S=1,     1024, 0xde0a7c81
0,        640,        640,        1,     6257, 0xfabc585f, S=1,     1024, 0xde0a7c81
0,        650,        650,        1,     6908, 0xf261701c, S=1,     1024, 0xde0a7c81
0,        660,        660,        1,     7230, 0xb4f524ce, S=1,     1024, 0xde0a7c81
0,        670,        670,        1,     7556, 0x89c1a712, S=1,     1024, 0xde0a7c81
0,        680,        680,        1,     7413, 0x553970a4, S=1,     1024, 0xde0a7c81
0,        690,        690,        1,     7476, 0x24d2a761, S=1,     1024, 0xde0a7c81
0,        700,        700,        1,     7596, 0xf072e431, S=1,     1024, 0xde0a7c81
0,        710,        710,        1,     7756, 0x131205c0, S=1,     1024, 0xde0a7c81
0,        720,        720,        1,     8015, 0xf4536a7f, S=1,     1024, 0xde0a7c81
0,        730,        730,        1,     8128, 0xba80be2b, S=1,     1024, 0xde0a7c81
0,        740,        740,        1,     8101, 0x44ceb3a2, S=1,     1024, 0xde0a7c81
0,        750,        750,        1,     7863, 0x55043dfd, S=1,     1024, 0xde0a7c81
0,        760,        760,        1,     7960, 0x38399182, S=1,     1024, 0xde0a7c81
0,        770,        770,        1,     8238, 0x1d52ecf3, S=1,     1024, 0xde0a7c81
0,        780,        780,        1,     8321, 0xd8d24a5c, S=1,     1024, 0xde0a7c81
0,        790,        790,        1,     8562, 0x4a0cc02b, S=1,     1024, 0xde0a7c81
0,        800,        800,        1,     8746, 0x2db40da7, S=1,     1024, 0xde0a7c81
0,        810,        810,        1,     8578, 0x46f9a4c1, S=1,     1024, 0xde0a7c81
0,        820,        820,        1,     8878, 0xf58d5a19, S=1,     1024, 0xde0a7c81
0,        830,        830,        1,     9077, 0x78de57f6, S=1,     1024, 0xde0a7c81
0,        840,        840,        1,     9310, 0x8c10f77a, S=1,     1024, 0xde0a7c81
0,        850,        850,        1,     9394, 0x741f431e, S=1,     1024, 0xde0a7c81
0,        860,        860,        1,     9161, 0x6f499587, S=1,     1024, 0xde0a7c81
0,        870,        870,        1,     9462, 0x628936c3, S=1,     1024, 0xde0a7c81
0,        880,        880,        1,     9650, 0x4cb4936e, S=1,     1024, 0xde0a7c81
0,        890,        890,        1,     9701, 0x5e069c40, S=1,     1024, 0xde0a7c81
0,        900,        900,        1,     9523, 0x66a13c83, S=1,     1024, 0xde0a7c81
0,        910,        910,        1,     9891, 0x43ea0e93, S=1,     1024, 0xde0a7c81
0,        920,        920,        1,    10005, 0x96a849e7, S=1,     1024, 0xde0a7c81
0,        930,        930,        1,    10038, 0x68032d25, S=1,     1024, 0xde0a7c81
0,        940,        940,        1,    10086, 0xef59458d, S=1,     1024, 0xde0a7c81
0,        950,        950,        1,    10438, 0x3466fed0, S=1,     1024, 0xde0a7c81
0,        960,        960,        1,    10583, 0x8bdd5477, S=1,     1024, 0xde0a7c81
0,        970,        970,        1,    10581, 0x69d27fee, S=1,     1024, 0xde0a7c81
0,        980,        980,        1,    10807, 0xde62d6e3, S=1,     1024, 0xde0a7c81
0,        990,        990,        1,    11111, 0x34eb4c13, S=1,     1024, 0xde0a7c81
0,       1000,       1000,        1,    11194, 0x584f6b73, S=1,     1024, 0xde0a7c81
0,       1010,       1010,        1,    11240, 0xc90ba13f, S=1,     1024, 0xde0a7c81
0,       1020,       1020,        1,    11483, 0x59c4f3c5, S=1,     1024, 0xde0a7c81
0,       1030,       1030,        1,    11680, 0xc62c5bc1, S=1,     1024, 0xde0a7c81
0,       1040,       1040,        1,    11785, 0xc9bab793, S=1,     1024, 0xde0a7c81
0,       1050,       1050,        1,    11436, 0xc9c40809, S=1,     1024, 0xde0a7c81
0,       1060,       1060,        1,    11928, 0x4b77c9a7, S=1,     1024, 0xde0a7c81
0,       1070,       1070,        1,    11932, 0x722abcbe, S=1,     1024, 0xde0a7c81
0,       1080,       1080,        1,    12281, 0x0d136f53, S=1,     1024, 0xde0a7c81
0,       1090,       1090,        1,    12334, 0x04a47f78, S=1,     1024, 0xde0a7c81
0,       1100,       1100,        1,    12452, 0xa02db188, S=1,     1024, 0xde0a7c81
0,       1110,       1110,        1,    12695, 0x1a813b2e, S=1,     1024, 0xde0a7c81
0,       1120,       1120,        1,    12668, 0x81b24f79, S=1,     1024, 0xde0a7c81
0,       1130,       1130,        1,    12957, 0x4da59f8c, S=1,     1024, 0xde0a7c81
0,       1140,       1140,        1,    13054, 0x7abedf5a, S=1,     1024, 0xde0a7c81
0,       1150,       1150,        1,    13147, 0x138f2bbd, S=1,     1024, 0xde0a7c81
0,       1160,       1160,        1,    13171, 0x43c1195f, S=1,     1024, 0xde0a7c81
0,       1170,       1170,        1,    13198, 0x2c8d58d4, S=1,     1024, 0xde0a7c81
0,       1180,       1180,        1,    13211, 0x12c36193, S=1,     1024, 0xde0a7c81
0,       1190,       1190,        1,    13210, 0xfe496107, S=1,     1024, 0xde0a7c81
0,       1200,       1200,        1,    13467, 0x4d8ea128, S=1,     1024, 0xde0a7c81
0,       1210,       1210,        1,    13665, 0x94caddde, S=1,     1024, 0xde0a7c81
0,       1220,       1220,        1,    13692, 0xe38febd9, S=1,     1024, 0xde0a7c81
0,       1230,       1230,        1,    13821, 0xee592e62, S=1,     1024, 0xde0a7c81
0,       1240,       1240,        1,    13946, 0xceb09235, S=1,     1024, 0xde0a7c81
0,       1250,       1250,        1,    14063, 0x7361d2f5, S=1,     1024, 0xde0a7c81
0,       1260,       1260,        1,    14124, 0x226bcac1, S=1,     1024, 0xde0a7c81
0,       1270,       1270,        1,    14331, 0x0649512b, S=1,     1024, 0xde0a7c81
0,       1280,       1280,        1,    14469, 0x0d7da45b, S=1,     1024, 0xde0a7c81
0,       1290,       1290,        1,    14536, 0x73cca242, S=1,     1024, 0xde0a7c81
0,       1300,       1300,        1,    14608, 0x1f3dd14e, S=1,     1024, 0xde0a7c81
0,       1310,       1310,        1,    14898, 0xd13d258e, S=1,     1024, 0xde0a7c81
0,       1320,       1320,        1,    14978, 0xfa049fea, S=1,     1024, 0xde0a7c81
0,       1330,       1330,        1,    15142, 0x1dfad60c, S=1,     1024, 0xde0a7c81
0,       1340,       1340,        1,    15129, 0x5962bae7, S=1,     1024, 0xde0a7c81
0,       1350,       1350,        1,    15243, 0x2c2c113b, S=1,     1024, 0xde0a7c81
0,       1360,       1360,        1,    15337, 0x3cab623b, S=1,     1024, 0xde0a7c81
0,       1370,       1370,        1,    15638, 0xbff3a100, S=1,     1024, 0xde0a7c81
0,       1380,       1380,        1,    15912, 0x13bf1fb2, S=1,     1024, 0xde0a7c81
0,       1390,       1390,        1,    16041, 0x01134246, S=1,     1024, 0xde0a7c81
0,       1400,       1400,        1,    16228, 0xe2f80035, S=1,     1024, 0xde0a7c81
0,       1410,       1410,        1,    16262, 0xc8d3ea51, S=1,     1024, 0xde0a7c81
0,       1420,       1420,        1,    16371, 0xe7da07f2, S=1,     1024, 0xde0a7c81
0,       1430,       1430,        1,    16661, 0x10ada592, S=1,     1024, 0xde0a7c81
0,       1440,       1440,        1,    16917, 0xbfb717e5, S=1,     1024, 0xde0a7c81
0,       1450,       1450,        1,    17149, 0x4074ca41, S=1,     1024, 0xde0a7c81
0,       1460,       1460,        1,    17172, 0xf749b49f, S=1,     1024, 0xde0a7c81
0,       1470,       1470,        1,    17315, 0x2abea8a0, S=1,     1024, 0xde0a7c81
0,       1480,       1480,        1,    17397, 0x14f71122, S=1,     1024, 0xde0a7c81
0,       1490,       1490,        1,    17431, 0xce49f2d3, S=1,     1024, 0xde0a7c81
0,       1500,       1500,        1,    17576, 0x7c6552ad, S=1,     1024, 0xde0a7c81
0,       1510,       1510,        1,    17764, 0x1d198d60, S=1,     1024, 0xde0a7c81
0,       1520,       1520,        1,    17826, 0xe1727f57, S=1,     1024, 0xde0a7c81
0,       1530,       1530,        1,    17918, 0xb78d9b9f, S=1,     1024, 0xde0a7c81
0,       1540,       1540,        1,    17823, 0xc9fabf19, S=1,     1024, 0xde0a7c81
0,       1550,       1550,        1,    18142, 0xeb5b21a9, S=1,     1024, 0xde0a7c81
0,       1560,       1560,        1,    18257, 0x7b38822c, S=1,     1024, 0xde0a7c81
0,       1570,       1570,        1,    18337, 0xd395c279, S=1,     1024, 0xde0a7c81
0,       1580,       1580,        1,    18293, 0x6c3b3766, S=1,     1024, 0xde0a7c81
0,       1590,       1590,        1,    18418, 0x2abcbcf8, S=1,     1024, 0xde0a7c81
0,       1600,       1600,        1,    18607, 0x79424730, S=1,     1024, 0xde0a7c81
0,       1610,       1610,        1,    18916, 0x8707bbc6, S=1,     1024, 0xde0a7c81
0,       1620,       1620,        1,    19073, 0xd82c03f6, S=1,     1024, 0xde0a7c81
0,       1630,       1630,        1,    19168, 0xb7d6fe27, S=1,     1024, 0xde0a7c81
0,       1640,       1640,        1,    19210, 0x79f301eb, S=1,     1024, 0xde0a7c81
0,       1650,       1650,        1,    19398, 0x0a5663c6, S=1,     1024, 0xde0a7c81
0,       1660,       1660,        1,    19480, 0x4fe09e5b, S=1,     1024, 0xde0a7c81
0,       1670,       1670,        1,    19659, 0xab971088, S=1,     1024, 0xde0a7c81
0,       1680,       1680,        1,    19672, 0x2e331553, S=1,     1024, 0xde0a7c81
0,       1690,       1690,        1,    19936, 0x2eea628a, S=1,     1024, 0xde0a7c81
0,       1700,       1700,        1,    19975, 0xd6bb9ab2, S=1,     1024, 0xde0a7c81
0,       1710,       1710,        1,    20021, 0xf7e98dc5, S=1,     1024, 0xde0a7c81
0,       1720,       1720,        1,    20060, 0x20017807, S=1,     1024, 0xde0a7c81
